<svg width="1024" height="1024" viewBox="0 0 1024 1024" fill="#fff"
	xmlns="http://www.w3.org/2000/svg">
	<g clip-path="url(#clip0_77_6)">
		<path d="M512 0C753.359 0 874.039 -0.000198364 949.02 74.9805C1024 149.961 1024 270.641 1024 512C1024 753.359 1024 874.039 949.02 949.02C874.039 1024 753.359 1024 512 1024C270.641 1024 149.961 1024 74.9805 949.02C18.4008 892.44 4.51695 809.839 1.10938 669H166.184V627.784H97.1924V553.864C97.1924 536.84 101.971 522.205 111.528 509.96C121.086 497.715 134.675 491.592 152.296 491.592H200.68V441.416H166.184C145.277 441.416 129.299 445.747 118.248 454.408C107.496 462.771 100.478 475.315 97.1924 492.04H94.9521V486.664C94.9521 474.12 91.0691 464.413 83.3037 457.544C75.5384 450.376 65.5333 446.792 53.2881 446.792H0.0634766C0.668918 248.257 7.08006 142.881 74.9805 74.9805C149.961 -0.000198364 270.641 0 512 0ZM546.186 441.416C525.578 441.416 507.21 446.344 491.082 456.2C474.954 465.757 462.111 479.197 452.554 496.52C443.295 513.842 438.666 534.301 438.666 557.896C438.666 581.49 443.295 602.098 452.554 619.72C461.812 637.042 474.506 650.483 490.634 660.04C507.06 669.597 525.578 674.376 546.186 674.376C573.663 674.376 596.063 667.208 613.386 652.872C630.708 638.536 642.357 619.123 648.33 594.632H598.602C595.018 605.682 588.896 614.344 580.234 620.616C571.573 626.888 560.074 630.024 545.738 630.024C535.584 630.024 525.877 627.336 516.618 621.96C507.658 616.285 500.341 608.072 494.666 597.32C489.29 586.568 486.602 573.426 486.602 557.896C486.602 542.066 489.29 528.925 494.666 518.472C500.341 507.72 507.658 499.656 516.618 494.28C525.877 488.904 535.584 486.216 545.738 486.216C559.775 486.216 571.274 489.352 580.234 495.624C589.493 501.896 595.615 510.408 598.602 521.16H648.33C643.551 496.371 632.352 476.957 614.73 462.92C597.408 448.584 574.559 441.416 546.186 441.416ZM764.187 441.416C737.008 441.416 715.803 447.389 700.571 459.336C685.339 471.283 677.723 486.963 677.723 506.376C677.723 520.115 681.307 531.613 688.475 540.872C695.643 549.832 705.349 557 717.595 562.376C730.139 567.453 744.027 570.888 759.259 572.68C776.88 574.77 790.171 577.907 799.131 582.088C808.389 586.269 813.018 594.035 813.019 605.384C813.019 613.149 809.136 620.019 801.371 625.992C793.904 631.667 783.152 634.504 769.115 634.504C754.481 634.504 742.683 631.219 733.723 624.648C725.061 618.078 719.835 609.566 718.043 599.112H669.211C671.6 621.811 681.457 640.029 698.779 653.768C716.102 667.506 739.398 674.376 768.667 674.376C787.184 674.376 803.312 671.24 817.051 664.968C831.088 658.696 841.99 650.184 849.755 639.432C857.819 628.68 861.702 616.583 861.403 603.144C861.403 586.717 857.67 574.024 850.203 565.064C842.737 555.806 832.582 549.086 819.739 544.904C806.897 540.424 792.262 537.288 775.835 535.496C741.19 531.912 723.867 522.056 723.867 505.928C723.867 498.461 727.451 492.488 734.619 488.008C741.787 483.229 751.494 480.84 763.739 480.84C775.686 480.84 785.691 483.528 793.755 488.904C801.819 493.982 806.448 501 807.643 509.96H853.339C850.95 488.755 842.289 472.029 827.355 459.784C812.422 447.539 791.365 441.416 764.187 441.416ZM0.400391 627.784C0.56225 642.053 0.789595 655.783 1.10938 669H-4.50391V627.784H0.400391ZM231.865 446.792V488.008H281.145C290.702 488.008 295.481 492.936 295.481 502.792V627.784H225.593V669H412.857V627.784H342.969V500.104C342.969 481.586 338.638 468.147 329.977 459.784C321.614 451.123 308.174 446.792 289.657 446.792H231.865ZM35.3682 488.008C44.9254 488.008 49.7041 492.936 49.7041 502.792V627.784H0.400391C0.001313 592.602 0 554.141 0 512C0 503.867 6.03083e-05 495.87 0.00292969 488.008H35.3682ZM0.0634766 446.792C0.0228747 460.106 0.00810066 473.839 0.00292969 488.008H-0.0244141V446.792H0.0634766ZM314.745 343.304C304.292 343.304 295.481 346.59 288.313 353.16C281.444 359.731 278.009 367.944 278.009 377.8C278.009 387.656 281.444 396.018 288.313 402.888C295.481 409.458 304.292 412.744 314.745 412.744C325.497 412.744 334.307 409.458 341.177 402.888C348.345 396.018 351.929 387.656 351.929 377.8C351.929 367.944 348.345 359.731 341.177 353.16C334.307 346.59 325.497 343.304 314.745 343.304Z" fill="#F20C32"/>
		<path d="M-4.50391 669V627.784H49.7041V502.792C49.7041 492.936 44.9254 488.008 35.3681 488.008H-0.0239072V446.792H53.2881C65.5334 446.792 75.5388 450.376 83.3041 457.544C91.0694 464.414 94.9521 474.12 94.9521 486.664V492.04H97.1921C100.477 475.315 107.496 462.771 118.248 454.408C129.299 445.747 145.277 441.416 166.184 441.416H200.68V491.592H152.296C134.675 491.592 121.085 497.715 111.528 509.96C101.971 522.206 97.1921 536.84 97.1921 553.864V627.784H166.184V669H-4.50391Z" fill="#fff"/>
		<path d="M314.745 412.744C304.292 412.744 295.481 409.459 288.313 402.888C281.444 396.019 278.009 387.656 278.009 377.8C278.009 367.944 281.444 359.731 288.313 353.16C295.481 346.59 304.292 343.304 314.745 343.304C325.497 343.304 334.308 346.59 341.177 353.16C348.345 359.731 351.929 367.944 351.929 377.8C351.929 387.656 348.345 396.019 341.177 402.888C334.308 409.459 325.497 412.744 314.745 412.744ZM225.593 669V627.784H295.481V502.792C295.481 492.936 290.702 488.008 281.145 488.008H231.865V446.792H289.657C308.174 446.792 321.614 451.123 329.977 459.784C338.638 468.147 342.969 481.587 342.969 500.104V627.784H412.857V669H225.593Z" fill="#fff"/>
		<path d="M546.186 674.376C525.578 674.376 507.061 669.598 490.634 660.04C474.506 650.483 461.813 637.043 452.554 619.72C443.295 602.099 438.666 581.491 438.666 557.896C438.666 534.302 443.295 513.843 452.554 496.52C462.111 479.198 474.954 465.758 491.082 456.2C507.21 446.344 525.578 441.416 546.186 441.416C574.559 441.416 597.407 448.584 614.73 462.92C632.351 476.958 643.551 496.371 648.33 521.16H598.602C595.615 510.408 589.493 501.896 580.234 495.624C571.274 489.352 559.775 486.216 545.738 486.216C535.583 486.216 525.877 488.904 516.618 494.28C507.658 499.656 500.341 507.72 494.666 518.472C489.29 528.926 486.602 542.067 486.602 557.896C486.602 573.427 489.29 586.568 494.666 597.32C500.341 608.072 507.658 616.286 516.618 621.96C525.877 627.336 535.583 630.024 545.738 630.024C560.074 630.024 571.573 626.888 580.234 620.616C588.895 614.344 595.018 605.683 598.602 594.632H648.33C642.357 619.123 630.709 638.536 613.386 652.872C596.063 667.208 573.663 674.376 546.186 674.376Z" fill="#fff"/>
		<path d="M768.667 674.376C739.398 674.376 716.102 667.507 698.779 653.768C681.456 640.03 671.6 621.811 669.211 599.112H718.043C719.835 609.566 725.062 618.078 733.723 624.648C742.683 631.219 754.48 634.504 769.115 634.504C783.152 634.504 793.904 631.667 801.371 625.992C809.136 620.019 813.019 613.15 813.019 605.384C813.019 594.035 808.39 586.27 799.131 582.088C790.171 577.907 776.88 574.771 759.259 572.68C744.027 570.888 730.139 567.454 717.595 562.376C705.35 557 695.643 549.832 688.475 540.872C681.307 531.614 677.723 520.115 677.723 506.376C677.723 486.963 685.339 471.283 700.571 459.336C715.803 447.39 737.008 441.416 764.187 441.416C791.366 441.416 812.422 447.539 827.355 459.784C842.288 472.03 850.95 488.755 853.339 509.96H807.643C806.448 501 801.819 493.982 793.755 488.904C785.691 483.528 775.686 480.84 763.739 480.84C751.494 480.84 741.787 483.23 734.619 488.008C727.451 492.488 723.867 498.462 723.867 505.928C723.867 522.056 741.19 531.912 775.835 535.496C792.262 537.288 806.896 540.424 819.739 544.904C832.582 549.086 842.736 555.806 850.203 565.064C857.67 574.024 861.403 586.718 861.403 603.144C861.702 616.584 857.819 628.68 849.755 639.432C841.99 650.184 831.088 658.696 817.051 664.968C803.312 671.24 787.184 674.376 768.667 674.376Z" fill="#fff"/>
	</g>
	<defs>
		<clipPath id="clip0_77_6">
			<rect width="1024" height="1024" fill="#fff"/>
		</clipPath>
	</defs>
</svg>
